<svg xmlns="http://www.w3.org/2000/svg" xmlns:xlink="http://www.w3.org/1999/xlink" width="1527.199" height="452.966" viewBox="0 0 1527.199 452.966"><defs><linearGradient id="a" x1="0.5" x2="0.5" y2="1" gradientUnits="objectBoundingBox"><stop offset="0" stop-color="#deecdd"/><stop offset="1" stop-color="#c1dfc4"/></linearGradient><linearGradient id="b" x1="0.5" x2="0.5" y2="1" gradientUnits="objectBoundingBox"><stop offset="0" stop-color="#a3bded"/><stop offset="1" stop-color="#6991c7"/></linearGradient></defs><g transform="translate(-318.397 -49.134)"><path d="M-2268,443.934s172.132,36.731,391.71,41.03c121.617,2.381,251.293-27.385,388.8-26.114,139.7,1.291,363.095,13.941,481.364,2,224.054-22.621,290.37-99.979,235.474-275.1-75.777-209.785-1306.85,87-1402.6,66.684C-2326.137,310.367-2268,443.934-2268,443.934Z" transform="translate(2598 17)" fill="url(#a)"/><path d="M-2280.6,88s136.372-64.788,359.79-27.068c20.778,3.508,321.425,65.25,355.13,65.25,139.273,0,201.964-71.053,318.025-53.643s397.51,26.114,455.54,81.243,34.818,150.88-46.424,168.289-310.464-37.72-423.623-29.015-217.615,49.326-330.775,29.015-153.781-43.523-264.039-43.523H-2266.1Z" transform="translate(2599)" fill="url(#b)"/><g opacity="0"><path d="M-1820.526,73.9c-.364,5.825-45.5-4.368-39.315,41.136s47.324,19.294,47.324,19.294a80.512,80.512,0,0,0,30.579,12.377c17.474,2.912,33.127-8.373,33.127-8.373s12.013,12.741,28.759,10.921,28.395-17.11,28.395-17.11,29.486,12.377,42.592-15.653-.364-51.329-24.754-56.061-14.2-39.68-46.232-44.776-44.776,30.215-44.776,30.215-20.022-5.46-29.851,0S-1820.162,68.074-1820.526,73.9Z" transform="translate(2492 73)" fill="#fff"/><path d="M-1720.09,73.9c.289,5.825,36.165-4.368,31.247,41.136s-37.612,19.294-37.612,19.294-10.416,9.465-24.3,12.377-26.328-8.373-26.328-8.373-9.548,12.741-22.857,10.921-22.567-17.11-22.567-17.11-23.435,12.377-33.851-15.653.289-51.329,19.674-56.061,11.283-39.68,36.744-44.776,35.587,30.215,35.587,30.215,15.913-5.46,23.725,0S-1720.38,68.074-1720.09,73.9Z" transform="matrix(0.996, -0.087, 0.087, 0.996, 2918.481, -51.642)" fill="#fff"/><path d="M-1662.715,73.9c.407,5.825,50.951-4.368,44.022,41.136s-52.99,19.294-52.99,19.294a95.919,95.919,0,0,1-34.239,12.377c-19.565,2.912-37.093-8.373-37.093-8.373s-13.451,12.741-32.2,10.921-31.794-17.11-31.794-17.11-33.016,12.377-47.69-15.653.407-51.329,27.718-56.061,15.9-39.68,51.767-44.776,50.136,30.215,50.136,30.215,22.419-5.46,33.424,0S-1663.123,68.074-1662.715,73.9Z" transform="matrix(0.996, -0.087, 0.087, 0.996, 3350.409, -45.511)" fill="#fff"/></g></g></svg>